#!OML:ASF F:\VICON\USERDATA\INSTALL\rory3\rory3.ASF
:FULLY-SPECIFIED
:DEGREES
79
root 0.6026451452241002 18.70545187519133 12.763056639792062 19.48788377109374 0.3126807785852841 -2.768043261925958
lfemur -31.321246207874 5.676675668561263 -18.337353148580785
ltibia 36.42159289141276
lfoot -10.308037925519512 3.3561433197904105
ltoes -8.475497139236793
rfemur -17.793270362593375 -2.110493507546168 22.09830465098027
rtibia 19.60097185490377
rfoot -12.055655072922608 0.8547739741690736
rtoes 11.622888883901613
lowerback 0.4138899576825459 0.740591165224362 -0.4375325231436424
upperback 6.413449595474349 0.8565598439430501 1.3774279042203126
thorax 5.284591660147606 0.35678649424542674 1.494631021153322
lowerneck -14.609826673683829 0.2552511390054939 -1.1727972449041624
upperneck 30.45461418802234 0.4921508671810725 -0.009788708569074767
head 12.755429544099384 0.17700278875840186 0.1902219174285678
lclavicle 3.8673518314516637e-16 -1.4361316463770015e-15
lhumerus -9.899503452672901 -8.308509996123322 83.73888130624353
lradius 29.43359494019419
lwrist 25.907518091835023
lhand -25.924668173638935 -8.093034325035799
lfingers 7.12502
lthumb 0.8824321583039476 22.062421156132544
rclavicle 3.866852268181881e-16 -1.4364854342948434e-15
rhumerus -30.989434098716522 -10.685453289462652 -72.12347609267447
rradius 28.959037093737084
rwrist 28.776767837160726
rhand -23.838246003862434 -26.33668125333614
rfingers 7.12502
rthumb 2.1143942886390805 -56.97067308978151
80
root 0.5782779146039136 18.669645778428237 13.00957437142143 18.823987175186122 0.3872571581791062 -2.8094629517474443
lfemur -31.523918980626284 5.707575114176251 -18.194889453933655
ltibia 36.681869559092014
lfoot -10.372756969167025 3.2459390035432243
ltoes -8.887787548086632
rfemur -17.900304096284984 -2.4230777426104946 22.182295559371855
rtibia 20.464442263216185
rfoot -11.82965922372297 0.9597506318374869
rtoes 11.755879190918659
lowerback 0.7451360599068764 0.706668363373161 -0.33076154861297896
upperback 6.4028121535216815 0.7884520059754229 1.3990953834837827
thorax 5.258532999243703 0.32713597573074144 1.4845809010643796
lowerneck -14.72935180913174 0.2597488830048237 -1.220170447074043
upperneck 30.66816112011277 0.4828603318588951 0.08129594875936547
head 12.839581888789665 0.18408356109257734 0.2694323724120626
lclavicle 3.8677783035332014e-16 -1.435939163178941e-15
lhumerus -11.431441397385187 -7.635789697649589 83.41686996897843
lradius 28.002137918358308
lwrist 23.783410680950922
lhand -26.021576582889324 -8.200689652559726
lfingers 7.12502
lthumb 0.8500170660690411 22.221002565733244
rclavicle 3.87203301636194e-16 -1.4357449372816526e-15
rhumerus -28.072065109079 -9.999463778630309 -72.6752584023737
rradius 29.751072165702357
rwrist 28.074731631240056
rhand -23.927941021799366 -26.385533572415905
rfingers 7.12502
rthumb 2.0965723939591516 -56.848781233974094
81
root 0.5596059619767734 18.62861845645647 13.084059484611553 18.65868183919433 0.4074415751957763 -2.8522383079311244
lfemur -31.760961241551218 5.7364931064635964 -18.031187939028186
ltibia 37.38564846151447
lfoot -10.48522710459083 3.143833411713354
ltoes -9.200624704343868
rfemur -18.225103057730323 -2.752255489266197 22.23607935693056
rtibia 21.427758966357207
rfoot -11.754561243372496 1.1648089503030872
rtoes 11.68906140973262
lowerback 0.9043495803627497 0.6740011420815413 -0.28458476547801675
upperback 6.309527378857856 0.7186727194959931 1.413625622368807
thorax 5.136605014345656 0.30104493836899326 1.4996765228810474
lowerneck -14.953758424555895 0.26626705849005394 -1.2597311253233126
upperneck 30.46923263796966 0.48759415463063616 0.14938807493420664
head 12.764392101723447 0.19325017976466274 0.30813333647502744
lclavicle 3.8686404350895113e-16 -1.4357288033654183e-15
lhumerus -13.003778637165311 -6.715373079518184 83.06158545422657
lradius 26.379527725563072
lwrist 21.33629397062169
lhand -26.114486956478995 -8.192775282097925
lfingers 7.12502
lthumb 0.7908875861945095 22.361677422079964
rclavicle 3.875480220671304e-16 -1.4352566342206107e-15
rhumerus -25.126778194247645 -9.344650901343389 -73.1361534967512
rradius 30.473043240119
rwrist 27.39445202310285
rhand -23.95590158401609 -26.4397906697645
rfingers 7.12502
rthumb 2.1196916676940076 -56.735601058970026
82
root 0.540926088889794 18.595114075390978 13.12152279214098 18.35308086709592 0.263816253524906 -2.794280664743825
lfemur -31.96984500885152 5.904686867757436 -18.012348059714732
ltibia 38.21166432356302
lfoot -10.433704839282049 3.228444869317645
ltoes -9.23784571866739
rfemur -19.206059117786843 -2.920665696502522 22.178553767446544
rtibia 22.40209427289652
rfoot -11.792787635509988 1.429942258546895
rtoes 11.751110588591349
lowerback 1.0062416215049197 0.6641894907350755 -0.3547329016881935
upperback 6.220224880850386 0.7105166845015446 1.3788306224685303
thorax 4.859180355939593 0.29165324568006307 1.536274100229417
lowerneck -15.087921426317305 0.28980805318389946 -1.287265662884474
upperneck 30.012178403560704 0.5169126377521032 0.1871656742932516
head 12.578383425718089 0.20837555511223918 0.313268790230391
lclavicle 3.8811381352754183e-16 -1.4339562051774718e-15
lhumerus -14.54542240673407 -5.555986906327626 82.67537915301975
lradius 24.784849453462076
lwrist 18.390255038633764
lhand -26.062861830708904 -8.01205156251838
lfingers 7.12502
lthumb 0.9014148836505044 22.49075926501387
rclavicle 3.882053236843965e-16 -1.4343290615814495e-15
rhumerus -22.366537224518844 -8.548263502076258 -73.61794164197444
rradius 31.507901530979193
rwrist 26.53704558887387
rhand -23.97925827309003 -26.52146953481646
rfingers 7.12502
rthumb 2.161736685685596 -56.674358508889455
83
root 0.5258875214513726 18.54574896229636 13.269214921781204 18.003520037366833 0.14165697497040242 -2.9959073457017755
lfemur -31.861096786574617 6.187651757040579 -17.710576846410774
ltibia 39.15538108482774
lfoot -10.44569305601963 3.3123715888833587
ltoes -9.640022663681556
rfemur -20.21184673342094 -3.0774027020244765 22.342492901375124
rtibia 23.301673727831613
rfoot -12.035449573840967 1.7355693109868278
rtoes 11.713192687661545
lowerback 1.0906741831793152 0.6437899081884818 -0.051747776803100776
upperback 6.119912405376266 0.6765869026750329 1.4202030555750258
thorax 4.508646506577633 0.2773886487197136 1.5021265253394351
lowerneck -15.237703107959918 0.326617575366993 -1.2731714794259554
upperneck 29.447801567966366 0.5863599592102192 0.16041035806223747
head 12.436186209937322 0.23474412523541754 0.28540682994168326
lclavicle 3.8833506853463054e-16 -1.4336010093795308e-15
lhumerus -16.24192202264969 -4.465196726721678 82.3868941012641
lradius 23.271743870386686
lwrist 15.299847206001427
lhand -25.953318910299114 -7.84449287903244
lfingers 7.12502
lthumb 1.1792036083803359 22.756104896414776
rclavicle 3.8845422954966574e-16 -1.4339764482661328e-15
rhumerus -20.205491555325537 -7.568623014621371 -73.99541601331282
rradius 32.664418109024226
rwrist 25.63168768926994
rhand -23.921861716137073 -26.632435759116156
rfingers 7.12502
rthumb 2.1465834400369816 -56.69206521731626
84
root 0.5190255379086002 18.487445170523127 13.329979651693751 17.577071720884597 0.002052505723719289 -3.060444043998434
lfemur -32.18364579433693 6.49080065432026 -17.6713427954716
ltibia 40.39062690903008
lfoot -10.449674885405 3.164930543154634
ltoes -9.549181886374864
rfemur -21.40429601705482 -3.183129428661384 22.38451936758034
rtibia 24.179593672388954
rfoot -12.213177821117922 2.0638137471982225
rtoes 11.765365877953588
lowerback 1.1867085430260982 0.6272436149150222 0.03632283772535766
upperback 5.99256599644398 0.6487084891661188 1.4075432881434946
thorax 4.1148705066091935 0.26299229884139275 1.5038747136536965
lowerneck -15.37325783258519 0.34975455592768256 -1.2892463319600163
upperneck 29.076815426550173 0.6276131216850224 0.1808148259013555
head 12.34472666829541 0.24442555104934852 0.29081126986896777
lclavicle 3.877200835766744e-16 -1.4345170053758114e-15
lhumerus -18.21466703529832 -3.386453481195974 81.9685920788019
lradius 21.98489468521982
lwrist 12.371213685406692
lhand -25.769314879209304 -7.582236139705293
lfingers 7.12502
lthumb 1.441686944239163 23.11072293842192
rclavicle 3.889506722525518e-16 -1.4332772407548734e-15
rhumerus -18.867525377496765 -6.484472731648293 -74.30024061910665
rradius 33.85920330091951
rwrist 24.591363944009398
rhand -23.88825416216945 -26.75527632273199
rfingers 7.12502
rthumb 2.17803311068086 -56.707135886613976
85
root 0.5064589632573432 18.4247606577544 13.292209957471494 17.40945268875452 -0.07988287146757544 -2.9448806904487594
lfemur -32.38981577225038 6.791364611207009 -17.916318297113683
ltibia 41.03923939193871
lfoot -10.4660439334164 2.9107066902495937
ltoes -9.161131970299994
rfemur -23.144895734924265 -3.1959124737323625 22.285102882123937
rtibia 25.343519280218988
rfoot -12.55928534253903 2.190532443700303
rtoes 11.480930005225034
lowerback 1.1957220774039445 0.5664898058158183 -0.15628680006131151
upperback 5.830736949684153 0.5865961845474373 1.3570758531526295
thorax 3.710501462178801 0.23825245979043141 1.549341210436273
lowerneck -15.460388456585513 0.3622441075960974 -1.2836301574995836
upperneck 28.67700252989093 0.6482428025345215 0.19282961445361924
head 12.271768225896807 0.2482458655477851 0.2932333937332653
lclavicle 3.8737539140011297e-16 -1.4351676471743608e-15
lhumerus -20.294215755650573 -2.6379270252169476 81.72037825700528
lradius 21.017172344645964
lwrist 9.609428594108554
lhand -25.649916384471066 -7.381158647138898
lfingers 7.12502
lthumb 1.4841673160132847 23.276858359601217
rclavicle 3.8906437027436834e-16 -1.4331197546491456e-15
rhumerus -18.53957362300614 -5.466448552704368 -74.43889858666641
rradius 34.568856590227234
rwrist 23.825805785988656
rhand -23.754023821430444 -26.849253486710403
rfingers 7.12502
rthumb 2.303505362410039 -56.66859278245593
